<svg width="20" height="20" viewBox="0 0 20 20" fill="none" xmlns="http://www.w3.org/2000/svg">
<path d="M20 10C20 15.5228 15.5228 20 10 20C4.47715 20 0 15.5228 0 10C0 4.47715 4.47715 0 10 0C15.5228 0 20 4.47715 20 10Z" fill="#18191C"/>
<path d="M9.5 6.00021C8.31914 5.98905 7.18184 6.41455 6.33803 7.1832C5.49422 7.95185 5.01295 9.00076 5 10.0994C5.00455 10.9676 5.30475 11.8122 5.85748 12.5118C6.41021 13.2113 7.18703 13.7299 8.07636 13.993C8.30136 14.0311 8.38318 13.9055 8.38318 13.7951C8.38318 13.6848 8.38318 13.4412 8.38318 13.0986C7.13136 13.346 6.86545 12.5505 6.86545 12.5505C6.78212 12.3008 6.60496 12.0873 6.36636 11.9492C5.95727 11.698 6.39909 11.7018 6.39909 11.7018C6.54049 11.7194 6.67578 11.7665 6.79481 11.8397C6.91384 11.9128 7.01351 12.0101 7.08636 12.1242C7.21332 12.3291 7.42163 12.4793 7.66646 12.5427C7.91129 12.606 8.17307 12.5774 8.39545 12.463C8.41833 12.2546 8.51977 12.0604 8.68182 11.9149C7.68364 11.8121 6.63636 11.462 6.63636 9.89006C6.62744 9.48002 6.79028 9.08283 7.09045 8.78248C6.95375 8.43044 6.96989 8.04269 7.13545 7.70155C7.13545 7.70155 7.51591 7.59117 8.36273 8.12022C9.09987 7.93746 9.87559 7.93746 10.6127 8.12022C11.4718 7.59117 11.84 7.70155 11.84 7.70155C12.0056 8.04269 12.0217 8.43044 11.885 8.78248C12.1921 9.07732 12.3638 9.47185 12.3636 9.88245C12.3636 11.4582 11.3082 11.8045 10.3182 11.9073C10.4266 12.0052 10.5103 12.1243 10.5634 12.2559C10.6164 12.3875 10.6375 12.5284 10.625 12.6685V13.7913C10.625 13.7913 10.7068 14.0311 10.9318 13.9892C11.8186 13.7245 12.5928 13.2058 13.1439 12.5072C13.6949 11.8086 13.9945 10.9659 14 10.0994C13.987 9.00076 13.5058 7.95185 12.662 7.1832C11.8182 6.41455 10.6809 5.98905 9.5 6.00021Z" fill="#D3DAD4"/>
</svg>
