<svg width="18" height="18" viewBox="0 0 18 18" fill="none" xmlns="http://www.w3.org/2000/svg">
<path d="M10.8333 5.8H10.4444V5.4C10.4444 5.29391 10.4035 5.19217 10.3305 5.11716C10.2576 5.04214 10.1587 5 10.0556 5C9.95241 5 9.8535 5.04214 9.78057 5.11716C9.70763 5.19217 9.66666 5.29391 9.66666 5.4V5.8H7.33333V5.4C7.33333 5.29391 7.29236 5.19217 7.21943 5.11716C7.1465 5.04214 7.04758 5 6.94444 5C6.8413 5 6.74239 5.04214 6.66945 5.11716C6.59652 5.19217 6.55555 5.29391 6.55555 5.4V5.8H6.16666C5.85724 5.8 5.5605 5.92643 5.3417 6.15147C5.12291 6.37652 5 6.68174 5 7V11.8C5 12.1183 5.12291 12.4235 5.3417 12.6485C5.5605 12.8736 5.85724 13 6.16666 13H10.8333C11.1427 13 11.4395 12.8736 11.6583 12.6485C11.8771 12.4235 12 12.1183 12 11.8V7C12 6.68174 11.8771 6.37652 11.6583 6.15147C11.4395 5.92643 11.1427 5.8 10.8333 5.8ZM6.94444 11C6.86753 11 6.79234 10.9765 6.72839 10.9326C6.66443 10.8886 6.61459 10.8262 6.58515 10.7531C6.55572 10.68 6.54802 10.5996 6.56302 10.522C6.57803 10.4444 6.61507 10.3731 6.66945 10.3172C6.72384 10.2612 6.79314 10.2231 6.86857 10.2077C6.94401 10.1923 7.0222 10.2002 7.09326 10.2304C7.16432 10.2607 7.22506 10.312 7.26779 10.3778C7.31052 10.4436 7.33333 10.5209 7.33333 10.6C7.33333 10.7061 7.29236 10.8078 7.21943 10.8828C7.1465 10.9579 7.04758 11 6.94444 11ZM10.0556 11H8.5C8.39686 11 8.29794 10.9579 8.22501 10.8828C8.15208 10.8078 8.11111 10.7061 8.11111 10.6C8.11111 10.4939 8.15208 10.3922 8.22501 10.3172C8.29794 10.2421 8.39686 10.2 8.5 10.2H10.0556C10.1587 10.2 10.2576 10.2421 10.3305 10.3172C10.4035 10.3922 10.4444 10.4939 10.4444 10.6C10.4444 10.7061 10.4035 10.8078 10.3305 10.8828C10.2576 10.9579 10.1587 11 10.0556 11ZM11.2222 8.6H5.77777V7C5.77777 6.89391 5.81875 6.79217 5.89168 6.71716C5.96461 6.64214 6.06352 6.6 6.16666 6.6H6.55555V7C6.55555 7.10609 6.59652 7.20783 6.66945 7.28284C6.74239 7.35786 6.8413 7.4 6.94444 7.4C7.04758 7.4 7.1465 7.35786 7.21943 7.28284C7.29236 7.20783 7.33333 7.10609 7.33333 7V6.6H9.66666V7C9.66666 7.10609 9.70763 7.20783 9.78057 7.28284C9.8535 7.35786 9.95241 7.4 10.0556 7.4C10.1587 7.4 10.2576 7.35786 10.3305 7.28284C10.4035 7.20783 10.4444 7.10609 10.4444 7V6.6H10.8333C10.9365 6.6 11.0354 6.64214 11.1083 6.71716C11.1812 6.79217 11.2222 6.89391 11.2222 7V8.6Z" fill="#868D97"/>
</svg>
