<svg width="20" height="20" viewBox="0 0 20 20" fill="none" xmlns="http://www.w3.org/2000/svg">
<path d="M20 10C20 15.5228 15.5228 20 10 20C4.47715 20 0 15.5228 0 10C0 4.47715 4.47715 0 10 0C15.5228 0 20 4.47715 20 10Z" fill="#18191C"/>
<path d="M11.0625 8.25001C10.7431 8.24892 10.4267 8.3108 10.1313 8.43213C9.83589 8.55346 9.5673 8.73184 9.3409 8.95708C9.11451 9.18231 8.93474 9.44998 8.8119 9.74476C8.68906 10.0395 8.62555 10.3557 8.625 10.675V13.125C8.625 13.2245 8.66451 13.3199 8.73484 13.3902C8.80516 13.4605 8.90054 13.5 9 13.5H9.875C9.97446 13.5 10.0698 13.4605 10.1402 13.3902C10.2105 13.3199 10.25 13.2245 10.25 13.125V10.675C10.2499 10.5614 10.2738 10.4491 10.32 10.3454C10.3663 10.2416 10.4338 10.1488 10.5184 10.0729C10.6029 9.99703 10.7024 9.93982 10.8106 9.90501C10.9187 9.87019 11.0329 9.85855 11.1458 9.87085C11.3483 9.89635 11.5344 9.99529 11.6688 10.1489C11.8032 10.3025 11.8766 10.5001 11.875 10.7042V13.125C11.875 13.2245 11.9145 13.3199 11.9848 13.3902C12.0552 13.4605 12.1505 13.5 12.25 13.5H13.125C13.2245 13.5 13.3198 13.4605 13.3902 13.3902C13.4605 13.3199 13.5 13.2245 13.5 13.125V10.675C13.4995 10.3557 13.4359 10.0395 13.3131 9.74476C13.1903 9.44998 13.0105 9.18231 12.7841 8.95708C12.5577 8.73184 12.2891 8.55346 11.9937 8.43213C11.6983 8.3108 11.3819 8.24892 11.0625 8.25001Z" fill="#D3DAD4"/>
<path d="M7.5 8.625H6.375C6.16789 8.625 6 8.79289 6 9V13.125C6 13.3321 6.16789 13.5 6.375 13.5H7.5C7.70711 13.5 7.875 13.3321 7.875 13.125V9C7.875 8.79289 7.70711 8.625 7.5 8.625Z" fill="#D3DAD4"/>
<path d="M6.9375 7.875C7.45527 7.875 7.875 7.45527 7.875 6.9375C7.875 6.41973 7.45527 6 6.9375 6C6.41973 6 6 6.41973 6 6.9375C6 7.45527 6.41973 7.875 6.9375 7.875Z" fill="#D3DAD4"/>
</svg>
