<svg width="20" height="20" viewBox="0 0 20 20" fill="none" xmlns="http://www.w3.org/2000/svg">
<path d="M20 10C20 15.5228 15.5228 20 10 20C4.47715 20 0 15.5228 0 10C0 4.47715 4.47715 0 10 0C15.5228 0 20 4.47715 20 10Z" fill="#18191C"/>
<path d="M14 10C14 9.47473 13.8965 8.95458 13.6955 8.46928C13.4945 7.98398 13.1999 7.54302 12.8284 7.17159C12.457 6.80015 12.016 6.50552 11.5307 6.3045C11.0454 6.10348 10.5253 6.00002 10 6.00002C8.93913 6.00002 7.92172 6.42144 7.17157 7.17159C6.42143 7.92173 6 8.93915 6 10C6 11.0609 6.42143 12.0783 7.17157 12.8284C7.92172 13.5786 8.93913 14 10 14C11.0609 14 12.0783 13.5786 12.8284 12.8284C13.5786 12.0783 14 11.0609 14 10ZM13.172 9.60002H12C11.934 8.65927 11.6117 7.75456 11.068 6.98402C11.6266 7.1824 12.1191 7.53204 12.4906 7.99395C12.8621 8.45586 13.098 9.01188 13.172 9.60002ZM8.832 10.4H11.2C11.0976 11.3882 10.6764 12.3163 10 13.044C9.32403 12.3194 8.91248 11.3877 8.832 10.4ZM8.832 9.60002C8.92515 8.61675 9.33504 7.6903 10 6.96002C10.6819 7.68246 11.1041 8.61123 11.2 9.60002H8.832ZM8.976 6.97202C8.42942 7.74682 8.10192 8.6547 8.028 9.60002H6.828C6.90356 9.00461 7.14504 8.44246 7.52487 7.97776C7.90469 7.51306 8.40754 7.16455 8.976 6.97202ZM6.828 10.4H8.028C8.09388 11.3445 8.41915 12.2525 8.968 13.024C8.40159 12.8305 7.90079 12.4821 7.52251 12.0182C7.14422 11.5544 6.90361 10.9938 6.828 10.4ZM11.048 13.02C11.5954 12.2483 11.9243 11.3431 12 10.4H13.18C13.1044 10.9921 12.8646 11.5512 12.4879 12.0142C12.1111 12.4772 11.6124 12.8256 11.048 13.02Z" fill="#D3DAD4"/>
</svg>
