<svg width="20" height="20" viewBox="0 0 20 20" fill="none" xmlns="http://www.w3.org/2000/svg">
<path d="M20 10C20 15.5228 15.5228 20 10 20C4.47715 20 0 15.5228 0 10C0 4.47715 4.47715 0 10 0C15.5228 0 20 4.47715 20 10Z" fill="#18191C"/>
<path d="M13.9067 9.70667L12.4222 6.73778C12.3114 6.51572 12.1407 6.329 11.9295 6.19866C11.7183 6.06831 11.4749 5.99951 11.2267 6H8.77334C8.52514 5.99951 8.28173 6.06831 8.07051 6.19866C7.85929 6.329 7.68864 6.51572 7.57778 6.73778L6.09334 9.70667C6.03143 9.83089 5.99946 9.96788 6.00001 10.1067V12.6667C6.00001 13.0203 6.14048 13.3594 6.39053 13.6095C6.64058 13.8595 6.97972 14 7.33334 14H12.6667C13.0203 14 13.3594 13.8595 13.6095 13.6095C13.8595 13.3594 14 13.0203 14 12.6667V10.1067C14.0005 9.96788 13.9686 9.83089 13.9067 9.70667ZM8.37334 7.13334C8.41061 7.05936 8.46781 6.99728 8.53849 6.95409C8.60917 6.9109 8.69051 6.88831 8.77334 6.88889H11.2267C11.3095 6.88831 11.3908 6.9109 11.4615 6.95409C11.5322 6.99728 11.5894 7.05936 11.6267 7.13334L12.8356 9.55556H11.7778C11.6599 9.55556 11.5469 9.60238 11.4635 9.68573C11.3802 9.76908 11.3333 9.88213 11.3333 10V10.8889C11.3333 11.0068 11.2865 11.1198 11.2032 11.2032C11.1198 11.2865 11.0068 11.3333 10.8889 11.3333H9.11111C8.99324 11.3333 8.88019 11.2865 8.79684 11.2032C8.71349 11.1198 8.66667 11.0068 8.66667 10.8889V10C8.66667 9.88213 8.61984 9.76908 8.53649 9.68573C8.45315 9.60238 8.3401 9.55556 8.22223 9.55556H7.16445L8.37334 7.13334Z" fill="#D3DAD4"/>
</svg>
