<svg width="20" height="20" viewBox="0 0 20 20" fill="none" xmlns="http://www.w3.org/2000/svg">
<path d="M0 10C0 4.47715 4.47715 0 10 0C15.5228 0 20 4.47715 20 10C20 15.5228 15.5228 20 10 20C4.47715 20 0 15.5228 0 10Z" fill="#18191C"/>
<path d="M12.1477 13.9999C10.5179 13.9978 8.95541 13.3481 7.80295 12.1934C6.65049 11.0386 6.00211 9.47308 6 7.84002C6 7.35203 6.19347 6.88402 6.53785 6.53896C6.88223 6.1939 7.3493 6.00005 7.83633 6.00005C7.93946 5.99926 8.04241 6.00864 8.14371 6.02805C8.24164 6.04257 8.33791 6.06668 8.43114 6.10004C8.49671 6.1231 8.55513 6.1629 8.60064 6.21551C8.64615 6.26813 8.67717 6.33173 8.69062 6.40004L9.23752 8.8C9.25227 8.86515 9.25049 8.93295 9.23236 8.99724C9.21423 9.06152 9.18032 9.12022 9.13373 9.168C9.08184 9.224 9.07784 9.228 8.58683 9.48399C8.98004 10.3483 9.66994 11.0424 10.5309 11.44C10.7904 10.944 10.7944 10.94 10.8503 10.888C10.898 10.8413 10.9566 10.8073 11.0207 10.7891C11.0849 10.771 11.1525 10.7692 11.2176 10.784L13.6128 11.332C13.6788 11.3473 13.7398 11.3792 13.7901 11.4247C13.8403 11.4702 13.8782 11.5278 13.9002 11.592C13.9339 11.6869 13.9593 11.7846 13.976 11.884C13.9921 11.9845 14.0001 12.0861 14 12.188C13.9926 12.6739 13.7937 13.1371 13.4467 13.4766C13.0997 13.8161 12.6327 14.0042 12.1477 13.9999Z" fill="#D3DAD4"/>
</svg>
